<svg width="408" height="303" viewBox="0 0 408 303" fill="none" xmlns="http://www.w3.org/2000/svg">
<path d="M0 0H408V303H0V0Z" fill="white" fill-opacity="0.01"/>
<path d="M119 85.85C119 76.7859 107.584 69.4375 93.5 69.4375C79.4168 69.4375 68 76.7859 68 85.85V217.15C68 226.214 79.4168 233.563 93.5 233.563C107.584 233.563 119 226.214 119 217.15V85.85Z" stroke="black" stroke-width="12.5913" stroke-linejoin="round"/>
<path d="M340 85.85C340 76.7859 328.584 69.4375 314.5 69.4375C300.416 69.4375 289 76.7859 289 85.85V217.15C289 226.214 300.416 233.563 314.5 233.563C328.584 233.563 340 226.214 340 217.15V85.85Z" stroke="black" stroke-width="12.5913" stroke-linejoin="round"/>
<path d="M68 117.834C68 108.537 56.5832 101 42.5 101C28.4167 101 17 108.537 17 117.834V185.166C17 194.464 28.4167 202 42.5 202C56.5832 202 68 194.464 68 185.166V117.834Z" stroke="black" stroke-width="12.5913" stroke-linejoin="round"/>
<path d="M391 117.834C391 108.537 379.584 101 365.5 101C351.416 101 340 108.537 340 117.834V185.166C340 194.464 351.416 202 365.5 202C379.584 202 391 194.464 391 185.166V117.834Z" stroke="black" stroke-width="12.5913" stroke-linejoin="round"/>
<path d="M119 170.438H289V132.563H119V170.438Z" stroke="black" stroke-width="12.5913" stroke-linejoin="round"/>
</svg>
